<mxfile host="app.diagrams.net" agent="Mozilla/5.0 (Windows NT 10.0; Win64; x64) AppleWebKit/537.36 (KHTML, like Gecko) Chrome/137.0.0.0 Safari/537.36 Edg/137.0.0.0" version="27.1.6">
  <diagram name="Page-1" id="aGNEdqS7ZnAI01soEtaL">
    <mxGraphModel dx="252" dy="536" grid="1" gridSize="10" guides="1" tooltips="1" connect="1" arrows="1" fold="1" page="1" pageScale="1" pageWidth="827" pageHeight="1169" math="0" shadow="0">
      <root>
        <mxCell id="0" />
        <mxCell id="1" parent="0" />
        <mxCell id="bdAHkHCcDSwH_wHbZK4x-2" value="Utilisateur" style="swimlane;whiteSpace=wrap;html=1;" parent="1" vertex="1">
          <mxGeometry x="60" y="340" width="110" height="110" as="geometry" />
        </mxCell>
        <mxCell id="bdAHkHCcDSwH_wHbZK4x-3" value="identifiant&lt;div&gt;email&lt;/div&gt;&lt;div&gt;password&lt;br&gt;&lt;div&gt;&lt;div&gt;type&lt;/div&gt;&lt;/div&gt;&lt;/div&gt;" style="text;html=1;align=left;verticalAlign=middle;resizable=0;points=[];autosize=1;strokeColor=none;fillColor=none;" parent="bdAHkHCcDSwH_wHbZK4x-2" vertex="1">
          <mxGeometry x="20" y="27.5" width="70" height="70" as="geometry" />
        </mxCell>
        <mxCell id="bdAHkHCcDSwH_wHbZK4x-4" value="Formation" style="swimlane;whiteSpace=wrap;html=1;" parent="1" vertex="1">
          <mxGeometry x="470" y="100" width="110" height="105" as="geometry" />
        </mxCell>
        <mxCell id="bdAHkHCcDSwH_wHbZK4x-5" value="identifiant&lt;div&gt;titre&lt;/div&gt;&lt;div&gt;description&lt;/div&gt;&lt;div&gt;image&lt;/div&gt;&lt;div&gt;estVisible&lt;/div&gt;" style="text;html=1;align=left;verticalAlign=middle;resizable=0;points=[];autosize=1;strokeColor=none;fillColor=none;" parent="bdAHkHCcDSwH_wHbZK4x-4" vertex="1">
          <mxGeometry x="15" y="15" width="80" height="90" as="geometry" />
        </mxCell>
        <mxCell id="bdAHkHCcDSwH_wHbZK4x-6" value="Session" style="swimlane;whiteSpace=wrap;html=1;" parent="1" vertex="1">
          <mxGeometry x="460" y="322.5" width="145" height="115" as="geometry" />
        </mxCell>
        <mxCell id="bdAHkHCcDSwH_wHbZK4x-7" value="identifiant&lt;div&gt;intitulé&lt;br&gt;&lt;div&gt;heure_debut&lt;/div&gt;&lt;div&gt;heure_fin&lt;/div&gt;&lt;div&gt;nb_participants_max&lt;/div&gt;&lt;div&gt;statut_session&lt;/div&gt;&lt;/div&gt;" style="text;html=1;align=left;verticalAlign=middle;resizable=0;points=[];autosize=1;strokeColor=none;fillColor=none;" parent="bdAHkHCcDSwH_wHbZK4x-6" vertex="1">
          <mxGeometry x="15" y="20" width="130" height="100" as="geometry" />
        </mxCell>
        <mxCell id="bdAHkHCcDSwH_wHbZK4x-9" value="" style="endArrow=none;html=1;rounded=0;entryX=0.549;entryY=1.001;entryDx=0;entryDy=0;exitX=0.5;exitY=0;exitDx=0;exitDy=0;entryPerimeter=0;" parent="1" source="bdAHkHCcDSwH_wHbZK4x-6" target="bdAHkHCcDSwH_wHbZK4x-5" edge="1">
          <mxGeometry width="50" height="50" relative="1" as="geometry">
            <mxPoint x="527.5" y="325" as="sourcePoint" />
            <mxPoint x="520" y="200" as="targetPoint" />
            <Array as="points" />
          </mxGeometry>
        </mxCell>
        <mxCell id="bdAHkHCcDSwH_wHbZK4x-16" value="1.1" style="edgeLabel;html=1;align=center;verticalAlign=middle;resizable=0;points=[];" parent="bdAHkHCcDSwH_wHbZK4x-9" vertex="1" connectable="0">
          <mxGeometry x="0.8372" y="2" relative="1" as="geometry">
            <mxPoint x="17" y="8" as="offset" />
          </mxGeometry>
        </mxCell>
        <mxCell id="bdAHkHCcDSwH_wHbZK4x-17" value="0.*" style="edgeLabel;html=1;align=center;verticalAlign=middle;resizable=0;points=[];" parent="bdAHkHCcDSwH_wHbZK4x-9" vertex="1" connectable="0">
          <mxGeometry x="-0.8414" y="-1" relative="1" as="geometry">
            <mxPoint x="11" y="-5" as="offset" />
          </mxGeometry>
        </mxCell>
        <mxCell id="bdAHkHCcDSwH_wHbZK4x-15" value="" style="endArrow=none;html=1;rounded=0;entryX=1;entryY=0.5;entryDx=0;entryDy=0;exitX=0.003;exitY=0.594;exitDx=0;exitDy=0;exitPerimeter=0;" parent="1" source="bdAHkHCcDSwH_wHbZK4x-26" target="bdAHkHCcDSwH_wHbZK4x-2" edge="1">
          <mxGeometry width="50" height="50" relative="1" as="geometry">
            <mxPoint x="430" y="360" as="sourcePoint" />
            <mxPoint x="280" y="330" as="targetPoint" />
            <Array as="points" />
          </mxGeometry>
        </mxCell>
        <mxCell id="bdAHkHCcDSwH_wHbZK4x-18" value="1.1" style="edgeLabel;html=1;align=center;verticalAlign=middle;resizable=0;points=[];" parent="bdAHkHCcDSwH_wHbZK4x-15" vertex="1" connectable="0">
          <mxGeometry x="0.8743" relative="1" as="geometry">
            <mxPoint x="14" y="-12" as="offset" />
          </mxGeometry>
        </mxCell>
        <mxCell id="bdAHkHCcDSwH_wHbZK4x-19" value="0.*" style="edgeLabel;html=1;align=center;verticalAlign=middle;resizable=0;points=[];" parent="bdAHkHCcDSwH_wHbZK4x-15" vertex="1" connectable="0">
          <mxGeometry x="-0.8629" y="-4" relative="1" as="geometry">
            <mxPoint x="-13" y="-7" as="offset" />
          </mxGeometry>
        </mxCell>
        <mxCell id="bdAHkHCcDSwH_wHbZK4x-20" value="Participation" style="swimlane;whiteSpace=wrap;html=1;" parent="1" vertex="1">
          <mxGeometry x="270" y="340" width="110" height="80" as="geometry" />
        </mxCell>
        <mxCell id="bdAHkHCcDSwH_wHbZK4x-26" value="&lt;div&gt;&lt;span style=&quot;background-color: transparent; color: light-dark(rgb(0, 0, 0), rgb(255, 255, 255));&quot;&gt;date_inscription&lt;/span&gt;&lt;/div&gt;&lt;div&gt;type_participant&lt;/div&gt;" style="text;html=1;align=center;verticalAlign=middle;resizable=0;points=[];autosize=1;strokeColor=none;fillColor=none;" parent="bdAHkHCcDSwH_wHbZK4x-20" vertex="1">
          <mxGeometry y="30" width="110" height="40" as="geometry" />
        </mxCell>
        <mxCell id="bdAHkHCcDSwH_wHbZK4x-22" value="" style="endArrow=none;html=1;rounded=0;exitX=0;exitY=0.5;exitDx=0;exitDy=0;entryX=1;entryY=0.5;entryDx=0;entryDy=0;" parent="1" source="bdAHkHCcDSwH_wHbZK4x-6" target="bdAHkHCcDSwH_wHbZK4x-20" edge="1">
          <mxGeometry width="50" height="50" relative="1" as="geometry">
            <mxPoint x="480" y="379.5" as="sourcePoint" />
            <mxPoint x="370" y="380" as="targetPoint" />
            <Array as="points" />
          </mxGeometry>
        </mxCell>
        <mxCell id="bdAHkHCcDSwH_wHbZK4x-23" value="0.*" style="edgeLabel;html=1;align=center;verticalAlign=middle;resizable=0;points=[];" parent="bdAHkHCcDSwH_wHbZK4x-22" vertex="1" connectable="0">
          <mxGeometry x="0.8743" relative="1" as="geometry">
            <mxPoint x="14" y="-12" as="offset" />
          </mxGeometry>
        </mxCell>
        <mxCell id="bdAHkHCcDSwH_wHbZK4x-24" value="1.1" style="edgeLabel;html=1;align=center;verticalAlign=middle;resizable=0;points=[];" parent="bdAHkHCcDSwH_wHbZK4x-22" vertex="1" connectable="0">
          <mxGeometry x="-0.8629" y="-4" relative="1" as="geometry">
            <mxPoint x="-15" y="-7" as="offset" />
          </mxGeometry>
        </mxCell>
        <mxCell id="Phj-4J7vhSZm3zuGbKYS-3" value="Salle" style="swimlane;whiteSpace=wrap;html=1;startSize=23;" parent="1" vertex="1">
          <mxGeometry x="760" y="332.5" width="130" height="110" as="geometry" />
        </mxCell>
        <mxCell id="Phj-4J7vhSZm3zuGbKYS-5" value="&lt;div&gt;identifiant&lt;/div&gt;&lt;div&gt;nom&lt;/div&gt;bâtiment&lt;div&gt;nb_places_max&lt;/div&gt;" style="text;html=1;align=center;verticalAlign=middle;resizable=0;points=[];autosize=1;strokeColor=none;fillColor=none;" parent="Phj-4J7vhSZm3zuGbKYS-3" vertex="1">
          <mxGeometry x="10" y="27.5" width="110" height="70" as="geometry" />
        </mxCell>
        <mxCell id="Phj-4J7vhSZm3zuGbKYS-4" value="Compétence" style="swimlane;whiteSpace=wrap;html=1;startSize=23;" parent="1" vertex="1">
          <mxGeometry x="200" y="120" width="130" height="80" as="geometry" />
        </mxCell>
        <mxCell id="Phj-4J7vhSZm3zuGbKYS-10" value="identifiant&lt;div&gt;nom&lt;/div&gt;" style="text;html=1;align=center;verticalAlign=middle;resizable=0;points=[];autosize=1;strokeColor=none;fillColor=none;" parent="Phj-4J7vhSZm3zuGbKYS-4" vertex="1">
          <mxGeometry x="30" y="30" width="70" height="40" as="geometry" />
        </mxCell>
        <mxCell id="Phj-4J7vhSZm3zuGbKYS-6" value="" style="endArrow=none;html=1;rounded=0;entryX=0;entryY=0.5;entryDx=0;entryDy=0;exitX=0.995;exitY=0.482;exitDx=0;exitDy=0;exitPerimeter=0;" parent="1" source="bdAHkHCcDSwH_wHbZK4x-7" target="Phj-4J7vhSZm3zuGbKYS-3" edge="1">
          <mxGeometry width="50" height="50" relative="1" as="geometry">
            <mxPoint x="390" y="320" as="sourcePoint" />
            <mxPoint x="440" y="270" as="targetPoint" />
          </mxGeometry>
        </mxCell>
        <mxCell id="Phj-4J7vhSZm3zuGbKYS-8" value="0.*" style="edgeLabel;html=1;align=center;verticalAlign=middle;resizable=0;points=[];" parent="Phj-4J7vhSZm3zuGbKYS-6" vertex="1" connectable="0">
          <mxGeometry x="-0.515" y="-1" relative="1" as="geometry">
            <mxPoint y="-18" as="offset" />
          </mxGeometry>
        </mxCell>
        <mxCell id="Phj-4J7vhSZm3zuGbKYS-9" value="1.1" style="edgeLabel;html=1;align=center;verticalAlign=middle;resizable=0;points=[];" parent="Phj-4J7vhSZm3zuGbKYS-6" vertex="1" connectable="0">
          <mxGeometry x="0.4394" y="1" relative="1" as="geometry">
            <mxPoint x="14" y="18" as="offset" />
          </mxGeometry>
        </mxCell>
        <mxCell id="Phj-4J7vhSZm3zuGbKYS-11" value="" style="endArrow=none;html=1;rounded=0;exitX=0.5;exitY=0;exitDx=0;exitDy=0;entryX=0;entryY=0.5;entryDx=0;entryDy=0;" parent="1" source="bdAHkHCcDSwH_wHbZK4x-2" target="Phj-4J7vhSZm3zuGbKYS-4" edge="1">
          <mxGeometry width="50" height="50" relative="1" as="geometry">
            <mxPoint x="90" y="300" as="sourcePoint" />
            <mxPoint x="140" y="250" as="targetPoint" />
            <Array as="points">
              <mxPoint x="115" y="160" />
            </Array>
          </mxGeometry>
        </mxCell>
        <mxCell id="Phj-4J7vhSZm3zuGbKYS-15" value="0.*" style="edgeLabel;html=1;align=center;verticalAlign=middle;resizable=0;points=[];" parent="Phj-4J7vhSZm3zuGbKYS-11" vertex="1" connectable="0">
          <mxGeometry x="-0.8823" relative="1" as="geometry">
            <mxPoint x="10" as="offset" />
          </mxGeometry>
        </mxCell>
        <mxCell id="Phj-4J7vhSZm3zuGbKYS-16" value="0.*" style="edgeLabel;html=1;align=center;verticalAlign=middle;resizable=0;points=[];" parent="Phj-4J7vhSZm3zuGbKYS-11" vertex="1" connectable="0">
          <mxGeometry x="0.7992" y="2" relative="1" as="geometry">
            <mxPoint y="-9" as="offset" />
          </mxGeometry>
        </mxCell>
        <mxCell id="Phj-4J7vhSZm3zuGbKYS-12" value="" style="endArrow=none;html=1;rounded=0;exitX=1;exitY=0.5;exitDx=0;exitDy=0;" parent="1" source="Phj-4J7vhSZm3zuGbKYS-4" edge="1">
          <mxGeometry width="50" height="50" relative="1" as="geometry">
            <mxPoint x="390" y="320" as="sourcePoint" />
            <mxPoint x="470" y="160" as="targetPoint" />
          </mxGeometry>
        </mxCell>
        <mxCell id="Phj-4J7vhSZm3zuGbKYS-13" value="0.*" style="edgeLabel;html=1;align=center;verticalAlign=middle;resizable=0;points=[];" parent="Phj-4J7vhSZm3zuGbKYS-12" vertex="1" connectable="0">
          <mxGeometry x="0.8057" y="-1" relative="1" as="geometry">
            <mxPoint x="-2" y="6" as="offset" />
          </mxGeometry>
        </mxCell>
        <mxCell id="Phj-4J7vhSZm3zuGbKYS-14" value="0.*" style="edgeLabel;html=1;align=center;verticalAlign=middle;resizable=0;points=[];" parent="Phj-4J7vhSZm3zuGbKYS-12" vertex="1" connectable="0">
          <mxGeometry x="-0.7371" y="1" relative="1" as="geometry">
            <mxPoint y="-7" as="offset" />
          </mxGeometry>
        </mxCell>
        <mxCell id="Phj-4J7vhSZm3zuGbKYS-17" value="Service" style="swimlane;whiteSpace=wrap;html=1;" parent="1" vertex="1">
          <mxGeometry x="230" y="470" width="110" height="90" as="geometry" />
        </mxCell>
        <mxCell id="Phj-4J7vhSZm3zuGbKYS-18" value="nom&lt;div&gt;email&lt;/div&gt;" style="text;html=1;align=center;verticalAlign=middle;resizable=0;points=[];autosize=1;strokeColor=none;fillColor=none;" parent="Phj-4J7vhSZm3zuGbKYS-17" vertex="1">
          <mxGeometry x="30" y="35" width="50" height="40" as="geometry" />
        </mxCell>
        <mxCell id="Phj-4J7vhSZm3zuGbKYS-19" value="" style="endArrow=none;html=1;rounded=0;exitX=1;exitY=0.5;exitDx=0;exitDy=0;entryX=0.5;entryY=1;entryDx=0;entryDy=0;" parent="1" source="Phj-4J7vhSZm3zuGbKYS-17" target="bdAHkHCcDSwH_wHbZK4x-6" edge="1">
          <mxGeometry width="50" height="50" relative="1" as="geometry">
            <mxPoint x="390" y="470" as="sourcePoint" />
            <mxPoint x="440" y="420" as="targetPoint" />
            <Array as="points">
              <mxPoint x="530" y="515" />
            </Array>
          </mxGeometry>
        </mxCell>
        <mxCell id="Phj-4J7vhSZm3zuGbKYS-20" value="0.*" style="edgeLabel;html=1;align=center;verticalAlign=middle;resizable=0;points=[];" parent="Phj-4J7vhSZm3zuGbKYS-19" vertex="1" connectable="0">
          <mxGeometry x="0.8559" y="3" relative="1" as="geometry">
            <mxPoint x="-10" y="-5" as="offset" />
          </mxGeometry>
        </mxCell>
        <mxCell id="Phj-4J7vhSZm3zuGbKYS-21" value="0.*" style="edgeLabel;html=1;align=center;verticalAlign=middle;resizable=0;points=[];" parent="Phj-4J7vhSZm3zuGbKYS-19" vertex="1" connectable="0">
          <mxGeometry x="-0.7357" y="-2" relative="1" as="geometry">
            <mxPoint x="-1" y="11" as="offset" />
          </mxGeometry>
        </mxCell>
        <mxCell id="Phj-4J7vhSZm3zuGbKYS-22" value="" style="endArrow=none;html=1;rounded=0;exitX=0;exitY=0.5;exitDx=0;exitDy=0;entryX=0.5;entryY=1;entryDx=0;entryDy=0;" parent="1" source="Phj-4J7vhSZm3zuGbKYS-17" target="bdAHkHCcDSwH_wHbZK4x-2" edge="1">
          <mxGeometry width="50" height="50" relative="1" as="geometry">
            <mxPoint x="390" y="370" as="sourcePoint" />
            <mxPoint x="440" y="320" as="targetPoint" />
            <Array as="points">
              <mxPoint x="115" y="515" />
            </Array>
          </mxGeometry>
        </mxCell>
        <mxCell id="Phj-4J7vhSZm3zuGbKYS-23" value="1.1" style="edgeLabel;html=1;align=center;verticalAlign=middle;resizable=0;points=[];" parent="Phj-4J7vhSZm3zuGbKYS-22" vertex="1" connectable="0">
          <mxGeometry x="-0.7943" y="2" relative="1" as="geometry">
            <mxPoint y="8" as="offset" />
          </mxGeometry>
        </mxCell>
        <mxCell id="Phj-4J7vhSZm3zuGbKYS-24" value="0.*" style="edgeLabel;html=1;align=center;verticalAlign=middle;resizable=0;points=[];" parent="Phj-4J7vhSZm3zuGbKYS-22" vertex="1" connectable="0">
          <mxGeometry x="0.7943" y="1" relative="1" as="geometry">
            <mxPoint x="-13" y="-7" as="offset" />
          </mxGeometry>
        </mxCell>
      </root>
    </mxGraphModel>
  </diagram>
</mxfile>
